<svg aria-hidden="true" style="position: absolute; width: 0; height: 0; overflow: hidden;" version="1.1" xmlns="http://www.w3.org/2000/svg" xmlns:xlink="http://www.w3.org/1999/xlink">
<defs>
<symbol id="icon-undo" viewBox="0 0 32 32">
<path d="M16 2c-4.418 0-8.418 1.791-11.313 4.687l-4.686-4.687v12h12l-4.485-4.485c2.172-2.172 5.172-3.515 8.485-3.515 6.627 0 12 5.373 12 12 0 3.584-1.572 6.801-4.063 9l2.646 3c3.322-2.932 5.417-7.221 5.417-12 0-8.837-7.163-16-16-16z"></path>
</symbol>
<symbol id="icon-redo" viewBox="0 0 32 32">
<path d="M0 18c0 4.779 2.095 9.068 5.417 12l2.646-3c-2.491-2.199-4.063-5.416-4.063-9 0-6.627 5.373-12 12-12 3.314 0 6.314 1.343 8.485 3.515l-4.485 4.485h12v-12l-4.687 4.687c-2.895-2.896-6.895-4.687-11.313-4.687-8.837 0-16 7.163-16 16z"></path>
</symbol>
</defs>
</svg>
