<svg aria-hidden="true" style="position: absolute; width: 0; height: 0; overflow: hidden;" version="1.1" xmlns="http://www.w3.org/2000/svg" xmlns:xlink="http://www.w3.org/1999/xlink">
<defs>
<symbol id="icon-calc-farmer" viewBox="0 0 172 32">
<path fill="#2748bc" style="fill: var(--color1, #2748bc)" d="M6.908 25.105c-1.387 0-2.577-0.33-3.567-0.991s-1.751-1.541-2.279-2.643c-0.506-1.101-0.76-2.323-0.76-3.667 0-1.387 0.264-2.709 0.793-3.964 0.529-1.277 1.255-2.4 2.18-3.369 0.947-0.991 2.037-1.773 3.27-2.345 1.255-0.573 2.599-0.859 4.030-0.859 1.586 0 2.874 0.374 3.865 1.123 1.013 0.727 1.674 1.718 1.982 2.973l-2.312 0.694c-0.286-0.903-0.771-1.597-1.453-2.081-0.661-0.484-1.464-0.727-2.411-0.727-0.969 0-1.916 0.22-2.841 0.661-0.903 0.418-1.718 1.013-2.444 1.784-0.705 0.771-1.277 1.652-1.718 2.643-0.418 0.991-0.628 2.048-0.628 3.171 0 1.079 0.187 2.037 0.562 2.874 0.396 0.837 0.936 1.508 1.619 2.015 0.705 0.484 1.497 0.727 2.378 0.727 0.705 0 1.409-0.132 2.114-0.396 0.727-0.264 1.376-0.617 1.949-1.057 0.573-0.462 0.991-0.958 1.255-1.486l2.081 0.661c-0.462 0.815-1.101 1.553-1.916 2.213-0.815 0.639-1.718 1.145-2.709 1.519-0.991 0.352-2.004 0.529-3.039 0.529zM23.834 25.105c-1.255 0-2.345-0.33-3.27-0.991s-1.63-1.541-2.114-2.643c-0.484-1.101-0.727-2.29-0.727-3.567 0-1.365 0.253-2.676 0.76-3.931 0.529-1.277 1.233-2.411 2.114-3.402 0.903-1.013 1.927-1.817 3.072-2.411s2.345-0.892 3.601-0.892c1.387 0 2.532 0.385 3.435 1.156 0.903 0.749 1.541 1.663 1.916 2.742l0.793-3.601h2.246l-3.039 14.27c-0.022 0.066-0.044 0.143-0.066 0.231 0 0.066 0 0.132 0 0.198 0 0.352 0.209 0.529 0.628 0.529l-0.429 1.982c-0.176 0.022-0.341 0.044-0.495 0.066-0.132 0.022-0.264 0.033-0.396 0.033-0.507-0.022-0.892-0.154-1.156-0.396-0.242-0.264-0.363-0.573-0.363-0.925 0-0.132 0.011-0.275 0.033-0.429s0.055-0.363 0.099-0.628c0.066-0.264 0.143-0.617 0.231-1.057-0.881 1.123-1.949 2.015-3.204 2.676-1.233 0.661-2.455 0.991-3.667 0.991zM24.759 23.123c0.55 0 1.134-0.11 1.751-0.33 0.639-0.22 1.255-0.517 1.85-0.892 0.595-0.396 1.123-0.859 1.586-1.387 0.484-0.529 0.837-1.079 1.057-1.652l1.090-5.318c-0.088-0.793-0.352-1.508-0.793-2.147s-0.991-1.156-1.652-1.553c-0.661-0.396-1.387-0.595-2.18-0.595-0.991 0-1.927 0.242-2.808 0.727s-1.674 1.134-2.378 1.949c-0.683 0.815-1.222 1.718-1.619 2.709-0.396 0.969-0.595 1.949-0.595 2.94 0 1.013 0.198 1.938 0.595 2.775s0.936 1.508 1.619 2.015c0.705 0.507 1.531 0.76 2.477 0.76zM40.239 24.972c-0.815 0-1.453-0.209-1.916-0.628s-0.694-1.013-0.694-1.784c0-0.154 0.011-0.308 0.033-0.462 0.044-0.154 0.077-0.308 0.099-0.462l4.426-20.976h2.246l-4.294 20.216c-0.022 0.11-0.044 0.209-0.066 0.297 0 0.088 0 0.187 0 0.297 0 0.969 0.517 1.453 1.553 1.453 0.242 0 0.529-0.033 0.859-0.099 0.352-0.066 0.672-0.154 0.958-0.264l-0.066 1.817c-0.418 0.176-0.936 0.319-1.553 0.429-0.595 0.11-1.123 0.165-1.586 0.165zM52.784 25.105c-1.387 0-2.577-0.33-3.567-0.991s-1.751-1.541-2.279-2.643c-0.507-1.101-0.76-2.323-0.76-3.667 0-1.387 0.264-2.709 0.793-3.964 0.529-1.277 1.255-2.4 2.18-3.369 0.947-0.991 2.037-1.773 3.27-2.345 1.255-0.573 2.599-0.859 4.030-0.859 1.586 0 2.874 0.374 3.865 1.123 1.013 0.727 1.674 1.718 1.982 2.973l-2.312 0.694c-0.286-0.903-0.771-1.597-1.453-2.081-0.661-0.484-1.464-0.727-2.411-0.727-0.969 0-1.916 0.22-2.841 0.661-0.903 0.418-1.718 1.013-2.444 1.784-0.705 0.771-1.277 1.652-1.718 2.643-0.418 0.991-0.628 2.048-0.628 3.171 0 1.079 0.187 2.037 0.562 2.874 0.396 0.837 0.936 1.508 1.619 2.015 0.705 0.484 1.498 0.727 2.378 0.727 0.705 0 1.409-0.132 2.114-0.396 0.727-0.264 1.376-0.617 1.949-1.057 0.573-0.462 0.991-0.958 1.255-1.486l2.081 0.661c-0.462 0.815-1.101 1.553-1.916 2.213-0.815 0.639-1.718 1.145-2.709 1.519-0.991 0.352-2.004 0.529-3.039 0.529zM75.391 9.348h-2.246l0.363-1.784h2.279l0.066-0.462c0.286-1.409 0.727-2.621 1.321-3.634 0.617-1.013 1.354-1.784 2.213-2.312 0.859-0.551 1.784-0.826 2.775-0.826 0.639 0 1.233 0.099 1.784 0.297 0.573 0.198 1.057 0.462 1.453 0.793l-1.024 1.619c-0.22-0.242-0.54-0.429-0.958-0.562-0.396-0.132-0.804-0.198-1.222-0.198-0.969 0-1.806 0.407-2.51 1.222s-1.222 1.993-1.553 3.534l-0.099 0.529h4.459l-0.363 1.784h-4.492l-4.757 22.429h-2.246l4.757-22.429zM88.454 25.105c-1.255 0-2.345-0.33-3.27-0.991s-1.63-1.541-2.114-2.643c-0.485-1.101-0.727-2.29-0.727-3.567 0-1.365 0.253-2.676 0.76-3.931 0.529-1.277 1.233-2.411 2.114-3.402 0.903-1.013 1.927-1.817 3.072-2.411s2.345-0.892 3.601-0.892c1.387 0 2.532 0.385 3.435 1.156 0.903 0.749 1.541 1.663 1.916 2.742l0.793-3.601h2.246l-3.039 14.27c-0.022 0.066-0.044 0.143-0.066 0.231 0 0.066 0 0.132 0 0.198 0 0.352 0.209 0.529 0.628 0.529l-0.429 1.982c-0.176 0.022-0.341 0.044-0.495 0.066-0.132 0.022-0.264 0.033-0.396 0.033-0.507-0.022-0.892-0.154-1.156-0.396-0.242-0.264-0.363-0.573-0.363-0.925 0-0.132 0.011-0.275 0.033-0.429s0.055-0.363 0.099-0.628c0.066-0.264 0.143-0.617 0.231-1.057-0.881 1.123-1.949 2.015-3.204 2.676-1.233 0.661-2.455 0.991-3.667 0.991zM89.379 23.123c0.55 0 1.134-0.11 1.751-0.33 0.639-0.22 1.255-0.517 1.85-0.892 0.595-0.396 1.123-0.859 1.586-1.387 0.484-0.529 0.837-1.079 1.057-1.652l1.090-5.318c-0.088-0.793-0.352-1.508-0.793-2.147s-0.991-1.156-1.652-1.553-1.387-0.595-2.18-0.595c-0.991 0-1.927 0.242-2.808 0.727s-1.674 1.134-2.378 1.949c-0.683 0.815-1.222 1.718-1.619 2.709-0.396 0.969-0.595 1.949-0.595 2.94 0 1.013 0.198 1.938 0.595 2.775s0.936 1.508 1.619 2.015c0.705 0.507 1.53 0.76 2.477 0.76zM105.256 7.564h2.114l-0.892 4.129c0.859-1.233 1.839-2.224 2.94-2.973s2.203-1.145 3.303-1.189c0.177 0 0.33 0.011 0.462 0.033 0.132 0 0.243 0.011 0.33 0.033l-0.429 1.949c-1.409 0.044-2.742 0.462-3.997 1.255s-2.246 1.883-2.973 3.27l-2.246 10.702h-2.246l3.633-17.21zM116.645 7.564h2.081l-0.859 3.898c0.925-1.299 2.015-2.323 3.27-3.072s2.522-1.123 3.799-1.123c0.859 0 1.586 0.176 2.18 0.529s1.035 0.859 1.321 1.519c0.309 0.661 0.451 1.475 0.429 2.444 0.661-0.991 1.376-1.817 2.147-2.477s1.597-1.156 2.477-1.486c0.881-0.352 1.751-0.529 2.61-0.529 0.925 0 1.663 0.176 2.213 0.529 0.55 0.33 0.958 0.815 1.222 1.453s0.396 1.387 0.396 2.246c0 0.484-0.033 0.991-0.099 1.519s-0.165 1.090-0.297 1.685l-2.147 10.075h-2.246l2.015-9.612c0.22-1.035 0.33-1.927 0.33-2.676 0-1.079-0.22-1.872-0.661-2.378-0.441-0.529-1.090-0.793-1.949-0.793-0.814 0-1.619 0.209-2.411 0.628s-1.531 1.002-2.213 1.751c-0.682 0.727-1.255 1.586-1.718 2.577l-2.213 10.504h-2.246l2.015-9.612c0.132-0.55 0.22-1.046 0.264-1.486 0.066-0.44 0.099-0.859 0.099-1.255 0-1.057-0.22-1.839-0.661-2.345s-1.090-0.76-1.949-0.76c-1.211 0-2.4 0.451-3.567 1.354-1.145 0.903-2.081 2.092-2.808 3.567l-2.213 10.537h-2.246l3.634-17.21zM149.345 25.105c-1.41 0-2.61-0.319-3.601-0.958-0.991-0.661-1.751-1.541-2.279-2.643s-0.804-2.334-0.826-3.7c0-1.365 0.242-2.676 0.727-3.931 0.506-1.255 1.211-2.378 2.114-3.369 0.925-0.991 2.004-1.773 3.237-2.345 1.233-0.595 2.577-0.892 4.030-0.892 1.079 0 2.048 0.176 2.907 0.529s1.53 0.87 2.015 1.553c0.506 0.683 0.76 1.541 0.76 2.577 0.022 1.74-0.727 3.028-2.246 3.865-1.498 0.815-3.799 1.222-6.904 1.222-0.683 0-1.443-0.011-2.279-0.033-0.815-0.044-1.751-0.11-2.808-0.198l0.33-1.586c1.057 0.066 1.959 0.121 2.709 0.165 0.77 0.022 1.486 0.033 2.147 0.033 1.761 0 3.148-0.132 4.162-0.396 1.013-0.286 1.739-0.694 2.18-1.222 0.462-0.529 0.682-1.145 0.661-1.85 0-0.683-0.177-1.233-0.529-1.652-0.353-0.44-0.815-0.76-1.387-0.958-0.551-0.198-1.179-0.297-1.883-0.297-1.146 0-2.191 0.253-3.138 0.76-0.925 0.484-1.729 1.145-2.411 1.982-0.683 0.815-1.212 1.74-1.586 2.775-0.353 1.035-0.529 2.092-0.529 3.171 0.022 1.035 0.209 1.982 0.562 2.841 0.352 0.859 0.881 1.553 1.586 2.081 0.727 0.507 1.619 0.76 2.676 0.76 1.145 0 2.213-0.286 3.204-0.859 1.013-0.573 1.805-1.354 2.378-2.345l1.85 0.562c-0.507 0.859-1.167 1.619-1.982 2.279-0.815 0.639-1.718 1.145-2.709 1.519s-2.038 0.562-3.138 0.562zM163.455 7.564h2.114l-0.892 4.129c0.859-1.233 1.838-2.224 2.94-2.973 1.1-0.749 2.202-1.145 3.303-1.189 0.175 0 0.33 0.011 0.462 0.033 0.132 0 0.242 0.011 0.33 0.033l-0.429 1.949c-1.41 0.044-2.742 0.462-3.997 1.255s-2.246 1.883-2.973 3.27l-2.246 10.702h-2.246l3.634-17.21z"></path>
</symbol>
<symbol id="icon-corn" viewBox="0 0 20 32">
<path fill="#f7ad57" style="fill: var(--color2, #f7ad57)" d="M14.415 15.408c0 4.248-0.608 8.089-1.588 10.866-0.49 1.389-1.072 2.506-1.713 3.275s-1.335 1.179-2.050 1.179c-0.715 0-1.408-0.41-2.050-1.179s-1.223-1.886-1.713-3.275c-0.98-2.777-1.588-6.618-1.588-10.866s0.608-8.089 1.588-10.866c0.49-1.389 1.072-2.506 1.713-3.275s1.335-1.179 2.050-1.179c0.715 0 1.408 0.41 2.050 1.179s1.223 1.886 1.713 3.275c0.98 2.777 1.588 6.618 1.588 10.866z"></path>
<path fill="#e2f40a" style="fill: var(--color3, #e2f40a)" d="M8.046 9.63c0 0.078-0.053 0.159-0.159 0.223-0.105 0.063-0.255 0.104-0.422 0.104s-0.317-0.041-0.422-0.104c-0.106-0.064-0.159-0.145-0.159-0.223s0.053-0.158 0.159-0.223c0.105-0.063 0.255-0.104 0.422-0.104s0.317 0.041 0.422 0.104c0.106 0.064 0.159 0.145 0.159 0.223z"></path>
<path fill="#e2f40a" style="fill: var(--color3, #e2f40a)" d="M9.326 9.63c0 0.078-0.053 0.159-0.159 0.223-0.105 0.063-0.255 0.104-0.422 0.104s-0.317-0.041-0.422-0.104c-0.106-0.064-0.159-0.145-0.159-0.223s0.053-0.158 0.159-0.223c0.105-0.063 0.255-0.104 0.422-0.104s0.317 0.041 0.422 0.104c0.106 0.064 0.159 0.145 0.159 0.223z"></path>
<path fill="#e2f40a" style="fill: var(--color3, #e2f40a)" d="M10.605 9.63c0 0.078-0.053 0.159-0.159 0.223-0.105 0.063-0.255 0.104-0.422 0.104s-0.317-0.041-0.422-0.104c-0.106-0.064-0.159-0.145-0.159-0.223s0.053-0.158 0.159-0.223c0.105-0.063 0.255-0.104 0.422-0.104s0.317 0.041 0.422 0.104c0.106 0.064 0.159 0.145 0.159 0.223z"></path>
<path fill="#e2f40a" style="fill: var(--color3, #e2f40a)" d="M11.885 9.63c0 0.078-0.053 0.159-0.159 0.223-0.105 0.063-0.255 0.104-0.422 0.104s-0.317-0.041-0.422-0.104c-0.106-0.064-0.159-0.145-0.159-0.223s0.053-0.158 0.159-0.223c0.105-0.063 0.255-0.104 0.422-0.104s0.317 0.041 0.422 0.104c0.106 0.064 0.159 0.145 0.159 0.223z"></path>
<path fill="#e2f40a" style="fill: var(--color3, #e2f40a)" d="M13.165 9.63c0 0.078-0.053 0.159-0.159 0.223-0.105 0.063-0.255 0.104-0.422 0.104s-0.317-0.041-0.422-0.104c-0.106-0.064-0.159-0.145-0.159-0.223s0.053-0.158 0.159-0.223c0.105-0.063 0.255-0.104 0.422-0.104s0.317 0.041 0.422 0.104c0.106 0.064 0.159 0.145 0.159 0.223z"></path>
<path fill="#e2f40a" style="fill: var(--color3, #e2f40a)" d="M13.591 7.319c0 0.078-0.053 0.158-0.159 0.223-0.105 0.063-0.255 0.104-0.422 0.104s-0.317-0.041-0.422-0.104c-0.106-0.064-0.159-0.145-0.159-0.223s0.053-0.159 0.159-0.223c0.105-0.063 0.255-0.104 0.422-0.104s0.317 0.041 0.422 0.104c0.106 0.064 0.159 0.145 0.159 0.223z"></path>
<path fill="#e2f40a" style="fill: var(--color3, #e2f40a)" d="M6.553 4.237c0 0.078-0.053 0.158-0.159 0.223-0.105 0.063-0.255 0.104-0.422 0.104s-0.317-0.041-0.422-0.104c-0.106-0.064-0.159-0.145-0.159-0.223s0.053-0.158 0.159-0.223c0.105-0.063 0.255-0.104 0.422-0.104s0.317 0.041 0.422 0.104c0.106 0.064 0.159 0.145 0.159 0.223z"></path>
<path fill="#e2f40a" style="fill: var(--color3, #e2f40a)" d="M7.62 4.237c0 0.078-0.053 0.158-0.159 0.223-0.105 0.063-0.255 0.104-0.422 0.104s-0.317-0.041-0.422-0.104c-0.106-0.064-0.159-0.145-0.159-0.223s0.053-0.158 0.159-0.223c0.105-0.063 0.255-0.104 0.422-0.104s0.317 0.041 0.422 0.104c0.106 0.064 0.159 0.145 0.159 0.223z"></path>
<path fill="#e2f40a" style="fill: var(--color3, #e2f40a)" d="M8.899 4.237c0 0.078-0.053 0.158-0.159 0.223-0.105 0.063-0.255 0.104-0.422 0.104s-0.317-0.041-0.422-0.104c-0.106-0.064-0.159-0.145-0.159-0.223s0.053-0.158 0.159-0.223c0.105-0.063 0.255-0.104 0.422-0.104s0.317 0.041 0.422 0.104c0.106 0.064 0.159 0.145 0.159 0.223z"></path>
<path fill="#e2f40a" style="fill: var(--color3, #e2f40a)" d="M10.179 4.237c0 0.078-0.053 0.158-0.159 0.223-0.105 0.063-0.255 0.104-0.422 0.104s-0.317-0.041-0.422-0.104c-0.106-0.064-0.159-0.145-0.159-0.223s0.053-0.158 0.159-0.223c0.105-0.063 0.255-0.104 0.422-0.104s0.317 0.041 0.422 0.104c0.106 0.064 0.159 0.145 0.159 0.223z"></path>
<path fill="#e2f40a" style="fill: var(--color3, #e2f40a)" d="M11.459 4.237c0 0.078-0.053 0.158-0.159 0.223-0.105 0.063-0.255 0.104-0.422 0.104s-0.317-0.041-0.422-0.104c-0.106-0.064-0.159-0.145-0.159-0.223s0.053-0.158 0.159-0.223c0.105-0.063 0.255-0.104 0.422-0.104s0.317 0.041 0.422 0.104c0.106 0.064 0.159 0.145 0.159 0.223z"></path>
<path fill="#e2f40a" style="fill: var(--color3, #e2f40a)" d="M12.738 4.237c0 0.078-0.053 0.158-0.159 0.223-0.105 0.063-0.255 0.104-0.422 0.104s-0.317-0.041-0.422-0.104c-0.106-0.064-0.159-0.145-0.159-0.223s0.053-0.158 0.159-0.223c0.105-0.063 0.255-0.104 0.422-0.104s0.317 0.041 0.422 0.104c0.106 0.064 0.159 0.145 0.159 0.223z"></path>
<path fill="#e2f40a" style="fill: var(--color3, #e2f40a)" d="M12.312 3.467c0 0.078-0.053 0.158-0.159 0.223-0.105 0.063-0.255 0.104-0.422 0.104s-0.317-0.041-0.422-0.104c-0.106-0.064-0.159-0.145-0.159-0.223s0.053-0.158 0.159-0.223c0.105-0.063 0.255-0.104 0.422-0.104s0.317 0.041 0.422 0.104c0.106 0.064 0.159 0.145 0.159 0.223z"></path>
<path fill="#e2f40a" style="fill: var(--color3, #e2f40a)" d="M9.539 0.385c0 0.078-0.053 0.158-0.159 0.223-0.105 0.063-0.255 0.104-0.422 0.104s-0.317-0.041-0.422-0.104c-0.106-0.064-0.159-0.145-0.159-0.223s0.053-0.158 0.159-0.223c0.105-0.063 0.255-0.104 0.422-0.104s0.317 0.041 0.422 0.104c0.106 0.064 0.159 0.145 0.159 0.223z"></path>
<path fill="#e2f40a" style="fill: var(--color3, #e2f40a)" d="M9.539 1.156c0 0.078-0.053 0.158-0.159 0.223-0.105 0.063-0.255 0.104-0.422 0.104s-0.317-0.041-0.422-0.104c-0.106-0.064-0.159-0.145-0.159-0.223s0.053-0.158 0.159-0.223c0.105-0.063 0.255-0.104 0.422-0.104s0.317 0.041 0.422 0.104c0.106 0.064 0.159 0.145 0.159 0.223z"></path>
<path fill="#e2f40a" style="fill: var(--color3, #e2f40a)" d="M10.819 1.156c0 0.078-0.053 0.158-0.159 0.223-0.105 0.063-0.255 0.104-0.422 0.104s-0.317-0.041-0.422-0.104c-0.106-0.064-0.159-0.145-0.159-0.223s0.053-0.158 0.159-0.223c0.105-0.063 0.255-0.104 0.422-0.104s0.317 0.041 0.422 0.104c0.106 0.064 0.159 0.145 0.159 0.223z"></path>
<path fill="#e2f40a" style="fill: var(--color3, #e2f40a)" d="M8.473 1.156c0 0.078-0.053 0.158-0.159 0.223-0.105 0.063-0.255 0.104-0.422 0.104s-0.317-0.041-0.422-0.104c-0.106-0.064-0.159-0.145-0.159-0.223s0.053-0.158 0.159-0.223c0.105-0.063 0.255-0.104 0.422-0.104s0.317 0.041 0.422 0.104c0.106 0.064 0.159 0.145 0.159 0.223z"></path>
<path fill="#e2f40a" style="fill: var(--color3, #e2f40a)" d="M7.833 1.926c0 0.078-0.053 0.158-0.159 0.223-0.105 0.063-0.255 0.104-0.422 0.104s-0.317-0.041-0.422-0.104c-0.106-0.064-0.159-0.145-0.159-0.223s0.053-0.158 0.159-0.223c0.105-0.063 0.255-0.105 0.422-0.105s0.317 0.041 0.422 0.105c0.106 0.064 0.159 0.145 0.159 0.223z"></path>
<path fill="#e2f40a" style="fill: var(--color3, #e2f40a)" d="M9.113 1.926c0 0.078-0.053 0.158-0.159 0.223-0.105 0.063-0.255 0.104-0.422 0.104s-0.317-0.041-0.422-0.104c-0.106-0.064-0.159-0.145-0.159-0.223s0.053-0.158 0.159-0.223c0.105-0.063 0.255-0.105 0.422-0.105s0.317 0.041 0.422 0.105c0.106 0.064 0.159 0.145 0.159 0.223z"></path>
<path fill="#e2f40a" style="fill: var(--color3, #e2f40a)" d="M10.179 1.926c0 0.078-0.053 0.158-0.159 0.223-0.105 0.063-0.255 0.104-0.422 0.104s-0.317-0.041-0.422-0.104c-0.106-0.064-0.159-0.145-0.159-0.223s0.053-0.158 0.159-0.223c0.105-0.063 0.255-0.105 0.422-0.105s0.317 0.041 0.422 0.105c0.106 0.064 0.159 0.145 0.159 0.223z"></path>
<path fill="#e2f40a" style="fill: var(--color3, #e2f40a)" d="M11.459 1.926c0 0.078-0.053 0.158-0.159 0.223-0.105 0.063-0.255 0.104-0.422 0.104s-0.317-0.041-0.422-0.104c-0.106-0.064-0.159-0.145-0.159-0.223s0.053-0.158 0.159-0.223c0.105-0.063 0.255-0.105 0.422-0.105s0.317 0.041 0.422 0.105c0.106 0.064 0.159 0.145 0.159 0.223z"></path>
<path fill="#e2f40a" style="fill: var(--color3, #e2f40a)" d="M11.885 2.696c0 0.078-0.053 0.158-0.159 0.223-0.105 0.063-0.255 0.104-0.422 0.104s-0.317-0.041-0.422-0.104c-0.106-0.064-0.159-0.145-0.159-0.223s0.053-0.158 0.159-0.223c0.105-0.063 0.255-0.104 0.422-0.104s0.317 0.041 0.422 0.104c0.106 0.064 0.159 0.145 0.159 0.223z"></path>
<path fill="#e2f40a" style="fill: var(--color3, #e2f40a)" d="M11.245 2.696c0 0.078-0.053 0.158-0.159 0.223-0.105 0.063-0.255 0.104-0.422 0.104s-0.317-0.041-0.422-0.104c-0.106-0.064-0.159-0.145-0.159-0.223s0.053-0.158 0.159-0.223c0.105-0.063 0.255-0.104 0.422-0.104s0.317 0.041 0.422 0.104c0.106 0.064 0.159 0.145 0.159 0.223z"></path>
<path fill="#e2f40a" style="fill: var(--color3, #e2f40a)" d="M9.966 2.696c0 0.078-0.053 0.158-0.159 0.223-0.105 0.063-0.255 0.104-0.422 0.104s-0.317-0.041-0.422-0.104c-0.106-0.064-0.159-0.145-0.159-0.223s0.053-0.158 0.159-0.223c0.105-0.063 0.255-0.104 0.422-0.104s0.317 0.041 0.422 0.104c0.106 0.064 0.159 0.145 0.159 0.223z"></path>
<path fill="#e2f40a" style="fill: var(--color3, #e2f40a)" d="M8.686 2.696c0 0.078-0.053 0.158-0.159 0.223-0.105 0.063-0.255 0.104-0.422 0.104s-0.317-0.041-0.422-0.104c-0.106-0.064-0.159-0.145-0.159-0.223s0.053-0.158 0.159-0.223c0.105-0.063 0.255-0.104 0.422-0.104s0.317 0.041 0.422 0.104c0.106 0.064 0.159 0.145 0.159 0.223z"></path>
<path fill="#e2f40a" style="fill: var(--color3, #e2f40a)" d="M7.407 2.696c0 0.078-0.053 0.158-0.159 0.223-0.105 0.063-0.255 0.104-0.422 0.104s-0.317-0.041-0.422-0.104c-0.106-0.064-0.159-0.145-0.159-0.223s0.053-0.158 0.159-0.223c0.105-0.063 0.255-0.104 0.422-0.104s0.317 0.041 0.422 0.104c0.106 0.064 0.159 0.145 0.159 0.223z"></path>
<path fill="#e2f40a" style="fill: var(--color3, #e2f40a)" d="M7.193 3.467c0 0.078-0.053 0.158-0.159 0.223-0.105 0.063-0.255 0.104-0.422 0.104s-0.317-0.041-0.422-0.104c-0.106-0.064-0.159-0.145-0.159-0.223s0.053-0.158 0.159-0.223c0.105-0.063 0.255-0.104 0.422-0.104s0.317 0.041 0.422 0.104c0.106 0.064 0.159 0.145 0.159 0.223z"></path>
<path fill="#e2f40a" style="fill: var(--color3, #e2f40a)" d="M8.473 3.467c0 0.078-0.053 0.158-0.159 0.223-0.105 0.063-0.255 0.104-0.422 0.104s-0.317-0.041-0.422-0.104c-0.106-0.064-0.159-0.145-0.159-0.223s0.053-0.158 0.159-0.223c0.105-0.063 0.255-0.104 0.422-0.104s0.317 0.041 0.422 0.104c0.106 0.064 0.159 0.145 0.159 0.223z"></path>
<path fill="#e2f40a" style="fill: var(--color3, #e2f40a)" d="M9.752 3.467c0 0.078-0.053 0.158-0.159 0.223-0.105 0.063-0.255 0.104-0.422 0.104s-0.317-0.041-0.422-0.104c-0.106-0.064-0.159-0.145-0.159-0.223s0.053-0.158 0.159-0.223c0.105-0.063 0.255-0.104 0.422-0.104s0.317 0.041 0.422 0.104c0.106 0.064 0.159 0.145 0.159 0.223z"></path>
<path fill="#e2f40a" style="fill: var(--color3, #e2f40a)" d="M11.032 3.467c0 0.078-0.053 0.158-0.159 0.223-0.105 0.063-0.255 0.104-0.422 0.104s-0.317-0.041-0.422-0.104c-0.106-0.064-0.159-0.145-0.159-0.223s0.053-0.158 0.159-0.223c0.105-0.063 0.255-0.104 0.422-0.104s0.317 0.041 0.422 0.104c0.106 0.064 0.159 0.145 0.159 0.223z"></path>
<path fill="#e2f40a" style="fill: var(--color3, #e2f40a)" d="M12.738 5.008c0 0.078-0.053 0.158-0.159 0.223-0.105 0.063-0.255 0.104-0.422 0.104s-0.317-0.041-0.422-0.104c-0.106-0.064-0.159-0.145-0.159-0.223s0.053-0.158 0.159-0.223c0.105-0.063 0.255-0.104 0.422-0.104s0.317 0.041 0.422 0.104c0.106 0.064 0.159 0.145 0.159 0.223z"></path>
<path fill="#e2f40a" style="fill: var(--color3, #e2f40a)" d="M11.459 5.008c0 0.078-0.053 0.158-0.159 0.223-0.105 0.063-0.255 0.104-0.422 0.104s-0.317-0.041-0.422-0.104c-0.106-0.064-0.159-0.145-0.159-0.223s0.053-0.158 0.159-0.223c0.105-0.063 0.255-0.104 0.422-0.104s0.317 0.041 0.422 0.104c0.106 0.064 0.159 0.145 0.159 0.223z"></path>
<path fill="#e2f40a" style="fill: var(--color3, #e2f40a)" d="M10.179 5.008c0 0.078-0.053 0.158-0.159 0.223-0.105 0.063-0.255 0.104-0.422 0.104s-0.317-0.041-0.422-0.104c-0.106-0.064-0.159-0.145-0.159-0.223s0.053-0.158 0.159-0.223c0.105-0.063 0.255-0.104 0.422-0.104s0.317 0.041 0.422 0.104c0.106 0.064 0.159 0.145 0.159 0.223z"></path>
<path fill="#e2f40a" style="fill: var(--color3, #e2f40a)" d="M8.899 5.008c0 0.078-0.053 0.158-0.159 0.223-0.105 0.063-0.255 0.104-0.422 0.104s-0.317-0.041-0.422-0.104c-0.106-0.064-0.159-0.145-0.159-0.223s0.053-0.158 0.159-0.223c0.105-0.063 0.255-0.104 0.422-0.104s0.317 0.041 0.422 0.104c0.106 0.064 0.159 0.145 0.159 0.223z"></path>
<path fill="#e2f40a" style="fill: var(--color3, #e2f40a)" d="M7.62 5.008c0 0.078-0.053 0.158-0.159 0.223-0.105 0.063-0.255 0.104-0.422 0.104s-0.317-0.041-0.422-0.104c-0.106-0.064-0.159-0.145-0.159-0.223s0.053-0.158 0.159-0.223c0.105-0.063 0.255-0.104 0.422-0.104s0.317 0.041 0.422 0.104c0.106 0.064 0.159 0.145 0.159 0.223z"></path>
<path fill="#e2f40a" style="fill: var(--color3, #e2f40a)" d="M6.34 5.008c0 0.078-0.053 0.158-0.159 0.223-0.105 0.063-0.255 0.104-0.422 0.104s-0.317-0.041-0.422-0.104c-0.106-0.064-0.159-0.145-0.159-0.223s0.053-0.158 0.159-0.223c0.105-0.063 0.255-0.104 0.422-0.104s0.317 0.041 0.422 0.104c0.106 0.064 0.159 0.145 0.159 0.223z"></path>
<path fill="#e2f40a" style="fill: var(--color3, #e2f40a)" d="M6.127 5.778c0 0.078-0.053 0.158-0.159 0.223-0.105 0.063-0.255 0.104-0.422 0.104s-0.317-0.041-0.422-0.104c-0.106-0.064-0.159-0.145-0.159-0.223s0.053-0.158 0.159-0.223c0.105-0.063 0.255-0.104 0.422-0.104s0.317 0.041 0.422 0.104c0.106 0.064 0.159 0.145 0.159 0.223z"></path>
<path fill="#e2f40a" style="fill: var(--color3, #e2f40a)" d="M6.766 5.778c0 0.078-0.053 0.158-0.159 0.223-0.105 0.063-0.255 0.104-0.422 0.104s-0.317-0.041-0.422-0.104c-0.106-0.064-0.159-0.145-0.159-0.223s0.053-0.158 0.159-0.223c0.105-0.063 0.255-0.104 0.422-0.104s0.317 0.041 0.422 0.104c0.106 0.064 0.159 0.145 0.159 0.223z"></path>
<path fill="#e2f40a" style="fill: var(--color3, #e2f40a)" d="M8.046 5.778c0 0.078-0.053 0.158-0.159 0.223-0.105 0.063-0.255 0.104-0.422 0.104s-0.317-0.041-0.422-0.104c-0.106-0.064-0.159-0.145-0.159-0.223s0.053-0.158 0.159-0.223c0.105-0.063 0.255-0.104 0.422-0.104s0.317 0.041 0.422 0.104c0.106 0.064 0.159 0.145 0.159 0.223z"></path>
<path fill="#e2f40a" style="fill: var(--color3, #e2f40a)" d="M9.326 5.778c0 0.078-0.053 0.158-0.159 0.223-0.105 0.063-0.255 0.104-0.422 0.104s-0.317-0.041-0.422-0.104c-0.106-0.064-0.159-0.145-0.159-0.223s0.053-0.158 0.159-0.223c0.105-0.063 0.255-0.104 0.422-0.104s0.317 0.041 0.422 0.104c0.106 0.064 0.159 0.145 0.159 0.223z"></path>
<path fill="#e2f40a" style="fill: var(--color3, #e2f40a)" d="M10.605 5.778c0 0.078-0.053 0.158-0.159 0.223-0.105 0.063-0.255 0.104-0.422 0.104s-0.317-0.041-0.422-0.104c-0.106-0.064-0.159-0.145-0.159-0.223s0.053-0.158 0.159-0.223c0.105-0.063 0.255-0.104 0.422-0.104s0.317 0.041 0.422 0.104c0.106 0.064 0.159 0.145 0.159 0.223z"></path>
<path fill="#e2f40a" style="fill: var(--color3, #e2f40a)" d="M11.885 5.778c0 0.078-0.053 0.158-0.159 0.223-0.105 0.063-0.255 0.104-0.422 0.104s-0.317-0.041-0.422-0.104c-0.106-0.064-0.159-0.145-0.159-0.223s0.053-0.158 0.159-0.223c0.105-0.063 0.255-0.104 0.422-0.104s0.317 0.041 0.422 0.104c0.106 0.064 0.159 0.145 0.159 0.223z"></path>
<path fill="#e2f40a" style="fill: var(--color3, #e2f40a)" d="M13.165 5.778c0 0.078-0.053 0.158-0.159 0.223-0.105 0.063-0.255 0.104-0.422 0.104s-0.317-0.041-0.422-0.104c-0.106-0.064-0.159-0.145-0.159-0.223s0.053-0.158 0.159-0.223c0.105-0.063 0.255-0.104 0.422-0.104s0.317 0.041 0.422 0.104c0.106 0.064 0.159 0.145 0.159 0.223z"></path>
<path fill="#e2f40a" style="fill: var(--color3, #e2f40a)" d="M13.378 6.548c0 0.078-0.053 0.159-0.159 0.223-0.105 0.063-0.255 0.104-0.422 0.104s-0.317-0.041-0.422-0.104c-0.106-0.064-0.159-0.145-0.159-0.223s0.053-0.158 0.159-0.223c0.105-0.063 0.255-0.104 0.422-0.104s0.317 0.041 0.422 0.104c0.106 0.064 0.159 0.145 0.159 0.223z"></path>
<path fill="#e2f40a" style="fill: var(--color3, #e2f40a)" d="M12.098 6.548c0 0.078-0.053 0.159-0.159 0.223-0.105 0.063-0.255 0.104-0.422 0.104s-0.317-0.041-0.422-0.104c-0.106-0.064-0.159-0.145-0.159-0.223s0.053-0.158 0.159-0.223c0.105-0.063 0.255-0.104 0.422-0.104s0.317 0.041 0.422 0.104c0.106 0.064 0.159 0.145 0.159 0.223z"></path>
<path fill="#e2f40a" style="fill: var(--color3, #e2f40a)" d="M11.032 6.548c0 0.078-0.053 0.159-0.159 0.223-0.105 0.063-0.255 0.104-0.422 0.104s-0.317-0.041-0.422-0.104c-0.106-0.064-0.159-0.145-0.159-0.223s0.053-0.158 0.159-0.223c0.105-0.063 0.255-0.104 0.422-0.104s0.317 0.041 0.422 0.104c0.106 0.064 0.159 0.145 0.159 0.223z"></path>
<path fill="#e2f40a" style="fill: var(--color3, #e2f40a)" d="M9.752 6.548c0 0.078-0.053 0.159-0.159 0.223-0.105 0.063-0.255 0.104-0.422 0.104s-0.317-0.041-0.422-0.104c-0.106-0.064-0.159-0.145-0.159-0.223s0.053-0.158 0.159-0.223c0.105-0.063 0.255-0.104 0.422-0.104s0.317 0.041 0.422 0.104c0.106 0.064 0.159 0.145 0.159 0.223z"></path>
<path fill="#e2f40a" style="fill: var(--color3, #e2f40a)" d="M8.473 6.548c0 0.078-0.053 0.159-0.159 0.223-0.105 0.063-0.255 0.104-0.422 0.104s-0.317-0.041-0.422-0.104c-0.106-0.064-0.159-0.145-0.159-0.223s0.053-0.158 0.159-0.223c0.105-0.063 0.255-0.104 0.422-0.104s0.317 0.041 0.422 0.104c0.106 0.064 0.159 0.145 0.159 0.223z"></path>
<path fill="#e2f40a" style="fill: var(--color3, #e2f40a)" d="M7.193 6.548c0 0.078-0.053 0.159-0.159 0.223-0.105 0.063-0.255 0.104-0.422 0.104s-0.317-0.041-0.422-0.104c-0.106-0.064-0.159-0.145-0.159-0.223s0.053-0.158 0.159-0.223c0.105-0.063 0.255-0.104 0.422-0.104s0.317 0.041 0.422 0.104c0.106 0.064 0.159 0.145 0.159 0.223z"></path>
<path fill="#e2f40a" style="fill: var(--color3, #e2f40a)" d="M5.913 6.548c0 0.078-0.053 0.159-0.159 0.223-0.105 0.063-0.255 0.104-0.422 0.104s-0.317-0.041-0.422-0.104c-0.106-0.064-0.159-0.145-0.159-0.223s0.053-0.158 0.159-0.223c0.105-0.063 0.255-0.104 0.422-0.104s0.317 0.041 0.422 0.104c0.106 0.064 0.159 0.145 0.159 0.223z"></path>
<path fill="#e2f40a" style="fill: var(--color3, #e2f40a)" d="M5.7 7.319c0 0.078-0.053 0.158-0.159 0.223-0.105 0.063-0.255 0.104-0.422 0.104s-0.317-0.041-0.422-0.104c-0.106-0.064-0.159-0.145-0.159-0.223s0.053-0.159 0.159-0.223c0.105-0.063 0.255-0.104 0.422-0.104s0.317 0.041 0.422 0.104c0.106 0.064 0.159 0.145 0.159 0.223z"></path>
<path fill="#e2f40a" style="fill: var(--color3, #e2f40a)" d="M7.193 7.319c0 0.078-0.053 0.158-0.159 0.223-0.105 0.063-0.255 0.104-0.422 0.104s-0.317-0.041-0.422-0.104c-0.106-0.064-0.159-0.145-0.159-0.223s0.053-0.159 0.159-0.223c0.105-0.063 0.255-0.104 0.422-0.104s0.317 0.041 0.422 0.104c0.106 0.064 0.159 0.145 0.159 0.223z"></path>
<path fill="#e2f40a" style="fill: var(--color3, #e2f40a)" d="M8.473 7.319c0 0.078-0.053 0.158-0.159 0.223-0.105 0.063-0.255 0.104-0.422 0.104s-0.317-0.041-0.422-0.104c-0.106-0.064-0.159-0.145-0.159-0.223s0.053-0.159 0.159-0.223c0.105-0.063 0.255-0.104 0.422-0.104s0.317 0.041 0.422 0.104c0.106 0.064 0.159 0.145 0.159 0.223z"></path>
<path fill="#e2f40a" style="fill: var(--color3, #e2f40a)" d="M9.752 7.319c0 0.078-0.053 0.158-0.159 0.223-0.105 0.063-0.255 0.104-0.422 0.104s-0.317-0.041-0.422-0.104c-0.106-0.064-0.159-0.145-0.159-0.223s0.053-0.159 0.159-0.223c0.105-0.063 0.255-0.104 0.422-0.104s0.317 0.041 0.422 0.104c0.106 0.064 0.159 0.145 0.159 0.223z"></path>
<path fill="#e2f40a" style="fill: var(--color3, #e2f40a)" d="M11.032 7.319c0 0.078-0.053 0.158-0.159 0.223-0.105 0.063-0.255 0.104-0.422 0.104s-0.317-0.041-0.422-0.104c-0.106-0.064-0.159-0.145-0.159-0.223s0.053-0.159 0.159-0.223c0.105-0.063 0.255-0.104 0.422-0.104s0.317 0.041 0.422 0.104c0.106 0.064 0.159 0.145 0.159 0.223z"></path>
<path fill="#e2f40a" style="fill: var(--color3, #e2f40a)" d="M12.312 7.319c0 0.078-0.053 0.158-0.159 0.223-0.105 0.063-0.255 0.104-0.422 0.104s-0.317-0.041-0.422-0.104c-0.106-0.064-0.159-0.145-0.159-0.223s0.053-0.159 0.159-0.223c0.105-0.063 0.255-0.104 0.422-0.104s0.317 0.041 0.422 0.104c0.106 0.064 0.159 0.145 0.159 0.223z"></path>
<path fill="#e2f40a" style="fill: var(--color3, #e2f40a)" d="M6.98 9.63c0 0.078-0.053 0.159-0.159 0.223-0.105 0.063-0.255 0.104-0.422 0.104s-0.317-0.041-0.422-0.104c-0.106-0.064-0.159-0.145-0.159-0.223s0.053-0.158 0.159-0.223c0.105-0.063 0.255-0.104 0.422-0.104s0.317 0.041 0.422 0.104c0.106 0.064 0.159 0.145 0.159 0.223z"></path>
<path fill="#e2f40a" style="fill: var(--color3, #e2f40a)" d="M13.805 8.089c0 0.078-0.053 0.159-0.159 0.223-0.105 0.063-0.255 0.104-0.422 0.104s-0.317-0.041-0.422-0.104c-0.106-0.064-0.159-0.145-0.159-0.223s0.053-0.158 0.159-0.223c0.105-0.063 0.255-0.104 0.422-0.104s0.317 0.041 0.422 0.104c0.106 0.064 0.159 0.145 0.159 0.223z"></path>
<path fill="#e2f40a" style="fill: var(--color3, #e2f40a)" d="M12.738 8.089c0 0.078-0.053 0.159-0.159 0.223-0.105 0.063-0.255 0.104-0.422 0.104s-0.317-0.041-0.422-0.104c-0.106-0.064-0.159-0.145-0.159-0.223s0.053-0.158 0.159-0.223c0.105-0.063 0.255-0.104 0.422-0.104s0.317 0.041 0.422 0.104c0.106 0.064 0.159 0.145 0.159 0.223z"></path>
<path fill="#e2f40a" style="fill: var(--color3, #e2f40a)" d="M11.459 8.089c0 0.078-0.053 0.159-0.159 0.223-0.105 0.063-0.255 0.104-0.422 0.104s-0.317-0.041-0.422-0.104c-0.106-0.064-0.159-0.145-0.159-0.223s0.053-0.158 0.159-0.223c0.105-0.063 0.255-0.104 0.422-0.104s0.317 0.041 0.422 0.104c0.106 0.064 0.159 0.145 0.159 0.223z"></path>
<path fill="#e2f40a" style="fill: var(--color3, #e2f40a)" d="M10.179 8.089c0 0.078-0.053 0.159-0.159 0.223-0.105 0.063-0.255 0.104-0.422 0.104s-0.317-0.041-0.422-0.104c-0.106-0.064-0.159-0.145-0.159-0.223s0.053-0.158 0.159-0.223c0.105-0.063 0.255-0.104 0.422-0.104s0.317 0.041 0.422 0.104c0.106 0.064 0.159 0.145 0.159 0.223z"></path>
<path fill="#e2f40a" style="fill: var(--color3, #e2f40a)" d="M8.899 8.089c0 0.078-0.053 0.159-0.159 0.223-0.105 0.063-0.255 0.104-0.422 0.104s-0.317-0.041-0.422-0.104c-0.106-0.064-0.159-0.145-0.159-0.223s0.053-0.158 0.159-0.223c0.105-0.063 0.255-0.104 0.422-0.104s0.317 0.041 0.422 0.104c0.106 0.064 0.159 0.145 0.159 0.223z"></path>
<path fill="#e2f40a" style="fill: var(--color3, #e2f40a)" d="M7.62 8.089c0 0.078-0.053 0.159-0.159 0.223-0.105 0.063-0.255 0.104-0.422 0.104s-0.317-0.041-0.422-0.104c-0.106-0.064-0.159-0.145-0.159-0.223s0.053-0.158 0.159-0.223c0.105-0.063 0.255-0.104 0.422-0.104s0.317 0.041 0.422 0.104c0.106 0.064 0.159 0.145 0.159 0.223z"></path>
<path fill="#e2f40a" style="fill: var(--color3, #e2f40a)" d="M6.34 8.089c0 0.078-0.053 0.159-0.159 0.223-0.105 0.063-0.255 0.104-0.422 0.104s-0.317-0.041-0.422-0.104c-0.106-0.064-0.159-0.145-0.159-0.223s0.053-0.158 0.159-0.223c0.105-0.063 0.255-0.104 0.422-0.104s0.317 0.041 0.422 0.104c0.106 0.064 0.159 0.145 0.159 0.223z"></path>
<path fill="#e2f40a" style="fill: var(--color3, #e2f40a)" d="M6.127 8.859c0 0.078-0.053 0.159-0.159 0.223-0.105 0.063-0.255 0.104-0.422 0.104s-0.317-0.041-0.422-0.104c-0.106-0.064-0.159-0.145-0.159-0.223s0.053-0.158 0.159-0.223c0.105-0.063 0.255-0.104 0.422-0.104s0.317 0.041 0.422 0.104c0.106 0.064 0.159 0.145 0.159 0.223z"></path>
<path fill="#e2f40a" style="fill: var(--color3, #e2f40a)" d="M7.407 8.859c0 0.078-0.053 0.159-0.159 0.223-0.105 0.063-0.255 0.104-0.422 0.104s-0.317-0.041-0.422-0.104c-0.106-0.064-0.159-0.145-0.159-0.223s0.053-0.158 0.159-0.223c0.105-0.063 0.255-0.104 0.422-0.104s0.317 0.041 0.422 0.104c0.106 0.064 0.159 0.145 0.159 0.223z"></path>
<path fill="#e2f40a" style="fill: var(--color3, #e2f40a)" d="M8.686 8.859c0 0.078-0.053 0.159-0.159 0.223-0.105 0.063-0.255 0.104-0.422 0.104s-0.317-0.041-0.422-0.104c-0.106-0.064-0.159-0.145-0.159-0.223s0.053-0.158 0.159-0.223c0.105-0.063 0.255-0.104 0.422-0.104s0.317 0.041 0.422 0.104c0.106 0.064 0.159 0.145 0.159 0.223z"></path>
<path fill="#e2f40a" style="fill: var(--color3, #e2f40a)" d="M9.966 8.859c0 0.078-0.053 0.159-0.159 0.223-0.105 0.063-0.255 0.104-0.422 0.104s-0.317-0.041-0.422-0.104c-0.106-0.064-0.159-0.145-0.159-0.223s0.053-0.158 0.159-0.223c0.105-0.063 0.255-0.104 0.422-0.104s0.317 0.041 0.422 0.104c0.106 0.064 0.159 0.145 0.159 0.223z"></path>
<path fill="#e2f40a" style="fill: var(--color3, #e2f40a)" d="M11.245 8.859c0 0.078-0.053 0.159-0.159 0.223-0.105 0.063-0.255 0.104-0.422 0.104s-0.317-0.041-0.422-0.104c-0.106-0.064-0.159-0.145-0.159-0.223s0.053-0.158 0.159-0.223c0.105-0.063 0.255-0.104 0.422-0.104s0.317 0.041 0.422 0.104c0.106 0.064 0.159 0.145 0.159 0.223z"></path>
<path fill="#e2f40a" style="fill: var(--color3, #e2f40a)" d="M12.525 8.859c0 0.078-0.053 0.159-0.159 0.223-0.105 0.063-0.255 0.104-0.422 0.104s-0.317-0.041-0.422-0.104c-0.106-0.064-0.159-0.145-0.159-0.223s0.053-0.158 0.159-0.223c0.105-0.063 0.255-0.104 0.422-0.104s0.317 0.041 0.422 0.104c0.106 0.064 0.159 0.145 0.159 0.223z"></path>
<path fill="#e2f40a" style="fill: var(--color3, #e2f40a)" d="M13.805 8.859c0 0.078-0.053 0.159-0.159 0.223-0.105 0.063-0.255 0.104-0.422 0.104s-0.317-0.041-0.422-0.104c-0.106-0.064-0.159-0.145-0.159-0.223s0.053-0.158 0.159-0.223c0.105-0.063 0.255-0.104 0.422-0.104s0.317 0.041 0.422 0.104c0.106 0.064 0.159 0.145 0.159 0.223z"></path>
<path fill="#e2f40a" style="fill: var(--color3, #e2f40a)" d="M7.62 10.4c0 0.078-0.053 0.158-0.159 0.223-0.105 0.063-0.255 0.104-0.422 0.104s-0.317-0.041-0.422-0.104c-0.106-0.064-0.159-0.145-0.159-0.223s0.053-0.159 0.159-0.223c0.105-0.063 0.255-0.104 0.422-0.104s0.317 0.041 0.422 0.104c0.106 0.064 0.159 0.145 0.159 0.223z"></path>
<path fill="#e2f40a" style="fill: var(--color3, #e2f40a)" d="M8.899 10.4c0 0.078-0.053 0.158-0.159 0.223-0.105 0.063-0.255 0.104-0.422 0.104s-0.317-0.041-0.422-0.104c-0.106-0.064-0.159-0.145-0.159-0.223s0.053-0.159 0.159-0.223c0.105-0.063 0.255-0.104 0.422-0.104s0.317 0.041 0.422 0.104c0.106 0.064 0.159 0.145 0.159 0.223z"></path>
<path fill="#e2f40a" style="fill: var(--color3, #e2f40a)" d="M10.179 10.4c0 0.078-0.053 0.158-0.159 0.223-0.105 0.063-0.255 0.104-0.422 0.104s-0.317-0.041-0.422-0.104c-0.106-0.064-0.159-0.145-0.159-0.223s0.053-0.159 0.159-0.223c0.105-0.063 0.255-0.104 0.422-0.104s0.317 0.041 0.422 0.104c0.106 0.064 0.159 0.145 0.159 0.223z"></path>
<path fill="#e2f40a" style="fill: var(--color3, #e2f40a)" d="M11.459 10.4c0 0.078-0.053 0.158-0.159 0.223-0.105 0.063-0.255 0.104-0.422 0.104s-0.317-0.041-0.422-0.104c-0.106-0.064-0.159-0.145-0.159-0.223s0.053-0.159 0.159-0.223c0.105-0.063 0.255-0.104 0.422-0.104s0.317 0.041 0.422 0.104c0.106 0.064 0.159 0.145 0.159 0.223z"></path>
<path fill="#e2f40a" style="fill: var(--color3, #e2f40a)" d="M12.738 10.4c0 0.078-0.053 0.158-0.159 0.223-0.105 0.063-0.255 0.104-0.422 0.104s-0.317-0.041-0.422-0.104c-0.106-0.064-0.159-0.145-0.159-0.223s0.053-0.159 0.159-0.223c0.105-0.063 0.255-0.104 0.422-0.104s0.317 0.041 0.422 0.104c0.106 0.064 0.159 0.145 0.159 0.223z"></path>
<path fill="#e2f40a" style="fill: var(--color3, #e2f40a)" d="M12.098 11.171c0 0.078-0.053 0.159-0.159 0.223-0.105 0.063-0.255 0.104-0.422 0.104s-0.317-0.041-0.422-0.104c-0.106-0.064-0.159-0.145-0.159-0.223s0.053-0.158 0.159-0.223c0.105-0.063 0.255-0.104 0.422-0.104s0.317 0.041 0.422 0.104c0.106 0.064 0.159 0.145 0.159 0.223z"></path>
<path fill="#e2f40a" style="fill: var(--color3, #e2f40a)" d="M10.819 11.171c0 0.078-0.053 0.159-0.159 0.223-0.105 0.063-0.255 0.104-0.422 0.104s-0.317-0.041-0.422-0.104c-0.106-0.064-0.159-0.145-0.159-0.223s0.053-0.158 0.159-0.223c0.105-0.063 0.255-0.104 0.422-0.104s0.317 0.041 0.422 0.104c0.106 0.064 0.159 0.145 0.159 0.223z"></path>
<path fill="#e2f40a" style="fill: var(--color3, #e2f40a)" d="M9.539 11.171c0 0.078-0.053 0.159-0.159 0.223-0.105 0.063-0.255 0.104-0.422 0.104s-0.317-0.041-0.422-0.104c-0.106-0.064-0.159-0.145-0.159-0.223s0.053-0.158 0.159-0.223c0.105-0.063 0.255-0.104 0.422-0.104s0.317 0.041 0.422 0.104c0.106 0.064 0.159 0.145 0.159 0.223z"></path>
<path fill="#e2f40a" style="fill: var(--color3, #e2f40a)" d="M8.259 11.171c0 0.078-0.053 0.159-0.159 0.223-0.105 0.063-0.255 0.104-0.422 0.104s-0.317-0.041-0.422-0.104c-0.106-0.064-0.159-0.145-0.159-0.223s0.053-0.158 0.159-0.223c0.105-0.063 0.255-0.104 0.422-0.104s0.317 0.041 0.422 0.104c0.106 0.064 0.159 0.145 0.159 0.223z"></path>
<path fill="#e2f40a" style="fill: var(--color3, #e2f40a)" d="M8.259 11.941c0 0.078-0.053 0.158-0.159 0.223-0.105 0.063-0.255 0.104-0.422 0.104s-0.317-0.041-0.422-0.104c-0.106-0.064-0.159-0.145-0.159-0.223s0.053-0.159 0.159-0.223c0.105-0.063 0.255-0.104 0.422-0.104s0.317 0.041 0.422 0.104c0.106 0.064 0.159 0.145 0.159 0.223z"></path>
<path fill="#e2f40a" style="fill: var(--color3, #e2f40a)" d="M9.539 11.941c0 0.078-0.053 0.158-0.159 0.223-0.105 0.063-0.255 0.104-0.422 0.104s-0.317-0.041-0.422-0.104c-0.106-0.064-0.159-0.145-0.159-0.223s0.053-0.159 0.159-0.223c0.105-0.063 0.255-0.104 0.422-0.104s0.317 0.041 0.422 0.104c0.106 0.064 0.159 0.145 0.159 0.223z"></path>
<path fill="#e2f40a" style="fill: var(--color3, #e2f40a)" d="M10.819 11.941c0 0.078-0.053 0.158-0.159 0.223-0.105 0.063-0.255 0.104-0.422 0.104s-0.317-0.041-0.422-0.104c-0.106-0.064-0.159-0.145-0.159-0.223s0.053-0.159 0.159-0.223c0.105-0.063 0.255-0.104 0.422-0.104s0.317 0.041 0.422 0.104c0.106 0.064 0.159 0.145 0.159 0.223z"></path>
<path fill="#e2f40a" style="fill: var(--color3, #e2f40a)" d="M12.098 11.941c0 0.078-0.053 0.158-0.159 0.223-0.105 0.063-0.255 0.104-0.422 0.104s-0.317-0.041-0.422-0.104c-0.106-0.064-0.159-0.145-0.159-0.223s0.053-0.159 0.159-0.223c0.105-0.063 0.255-0.104 0.422-0.104s0.317 0.041 0.422 0.104c0.106 0.064 0.159 0.145 0.159 0.223z"></path>
<path fill="#e2f40a" style="fill: var(--color3, #e2f40a)" d="M8.899 12.711c0 0.078-0.053 0.158-0.159 0.223-0.105 0.063-0.255 0.104-0.422 0.104s-0.317-0.041-0.422-0.104c-0.106-0.064-0.159-0.145-0.159-0.223s0.053-0.159 0.159-0.223c0.105-0.063 0.255-0.104 0.422-0.104s0.317 0.041 0.422 0.104c0.106 0.064 0.159 0.145 0.159 0.223z"></path>
<path fill="#e2f40a" style="fill: var(--color3, #e2f40a)" d="M10.179 12.711c0 0.078-0.053 0.158-0.159 0.223-0.105 0.063-0.255 0.104-0.422 0.104s-0.317-0.041-0.422-0.104c-0.106-0.064-0.159-0.145-0.159-0.223s0.053-0.159 0.159-0.223c0.105-0.063 0.255-0.104 0.422-0.104s0.317 0.041 0.422 0.104c0.106 0.064 0.159 0.145 0.159 0.223z"></path>
<path fill="#e2f40a" style="fill: var(--color3, #e2f40a)" d="M11.459 12.711c0 0.078-0.053 0.158-0.159 0.223-0.105 0.063-0.255 0.104-0.422 0.104s-0.317-0.041-0.422-0.104c-0.106-0.064-0.159-0.145-0.159-0.223s0.053-0.159 0.159-0.223c0.105-0.063 0.255-0.104 0.422-0.104s0.317 0.041 0.422 0.104c0.106 0.064 0.159 0.145 0.159 0.223z"></path>
<path fill="#e2f40a" style="fill: var(--color3, #e2f40a)" d="M8.899 13.482c0 0.078-0.053 0.158-0.159 0.223-0.105 0.063-0.255 0.104-0.422 0.104s-0.317-0.041-0.422-0.104c-0.106-0.064-0.159-0.145-0.159-0.223s0.053-0.159 0.159-0.223c0.105-0.063 0.255-0.104 0.422-0.104s0.317 0.041 0.422 0.104c0.106 0.064 0.159 0.145 0.159 0.223z"></path>
<path fill="#e2f40a" style="fill: var(--color3, #e2f40a)" d="M10.179 13.482c0 0.078-0.053 0.158-0.159 0.223-0.105 0.063-0.255 0.104-0.422 0.104s-0.317-0.041-0.422-0.104c-0.106-0.064-0.159-0.145-0.159-0.223s0.053-0.159 0.159-0.223c0.105-0.063 0.255-0.104 0.422-0.104s0.317 0.041 0.422 0.104c0.106 0.064 0.159 0.145 0.159 0.223z"></path>
<path fill="#e2f40a" style="fill: var(--color3, #e2f40a)" d="M11.459 13.482c0 0.078-0.053 0.158-0.159 0.223-0.105 0.063-0.255 0.104-0.422 0.104s-0.317-0.041-0.422-0.104c-0.106-0.064-0.159-0.145-0.159-0.223s0.053-0.159 0.159-0.223c0.105-0.063 0.255-0.104 0.422-0.104s0.317 0.041 0.422 0.104c0.106 0.064 0.159 0.145 0.159 0.223z"></path>
<path fill="#e2f40a" style="fill: var(--color3, #e2f40a)" d="M9.539 14.252c0 0.078-0.053 0.158-0.159 0.223-0.105 0.063-0.255 0.104-0.422 0.104s-0.317-0.041-0.422-0.104c-0.106-0.064-0.159-0.145-0.159-0.223s0.053-0.159 0.159-0.223c0.105-0.063 0.255-0.104 0.422-0.104s0.317 0.041 0.422 0.104c0.106 0.064 0.159 0.145 0.159 0.223z"></path>
<path fill="#e2f40a" style="fill: var(--color3, #e2f40a)" d="M10.819 14.252c0 0.078-0.053 0.158-0.159 0.223-0.105 0.063-0.255 0.104-0.422 0.104s-0.317-0.041-0.422-0.104c-0.106-0.064-0.159-0.145-0.159-0.223s0.053-0.159 0.159-0.223c0.105-0.063 0.255-0.104 0.422-0.104s0.317 0.041 0.422 0.104c0.106 0.064 0.159 0.145 0.159 0.223z"></path>
<path fill="#e2f40a" style="fill: var(--color3, #e2f40a)" d="M9.539 15.023c0 0.078-0.053 0.158-0.159 0.223-0.105 0.063-0.255 0.104-0.422 0.104s-0.317-0.041-0.422-0.104c-0.106-0.064-0.159-0.145-0.159-0.223s0.053-0.159 0.159-0.223c0.105-0.063 0.255-0.104 0.422-0.104s0.317 0.041 0.422 0.104c0.106 0.064 0.159 0.145 0.159 0.223z"></path>
<path fill="#e2f40a" style="fill: var(--color3, #e2f40a)" d="M10.819 15.023c0 0.078-0.053 0.158-0.159 0.223-0.105 0.063-0.255 0.104-0.422 0.104s-0.317-0.041-0.422-0.104c-0.106-0.064-0.159-0.145-0.159-0.223s0.053-0.159 0.159-0.223c0.105-0.063 0.255-0.104 0.422-0.104s0.317 0.041 0.422 0.104c0.106 0.064 0.159 0.145 0.159 0.223z"></path>
<path fill="#e2f40a" style="fill: var(--color3, #e2f40a)" d="M10.179 15.793c0 0.078-0.053 0.159-0.159 0.223-0.105 0.063-0.255 0.105-0.422 0.105s-0.317-0.041-0.422-0.105c-0.106-0.064-0.159-0.145-0.159-0.223s0.053-0.158 0.159-0.223c0.105-0.063 0.255-0.104 0.422-0.104s0.317 0.041 0.422 0.104c0.106 0.064 0.159 0.145 0.159 0.223z"></path>
<path fill="#e2f40a" style="fill: var(--color3, #e2f40a)" d="M10.179 16.563c0 0.078-0.053 0.158-0.159 0.223-0.105 0.063-0.255 0.105-0.422 0.105s-0.317-0.041-0.422-0.105c-0.106-0.064-0.159-0.145-0.159-0.223s0.053-0.159 0.159-0.223c0.105-0.063 0.255-0.105 0.422-0.105s0.317 0.041 0.422 0.105c0.106 0.064 0.159 0.145 0.159 0.223z"></path>
<path fill="#e2f40a" style="fill: var(--color3, #e2f40a)" d="M10.179 17.334c0 0.078-0.053 0.158-0.159 0.223-0.105 0.063-0.255 0.105-0.422 0.105s-0.317-0.041-0.422-0.105c-0.106-0.064-0.159-0.145-0.159-0.223s0.053-0.159 0.159-0.223c0.105-0.063 0.255-0.105 0.422-0.105s0.317 0.041 0.422 0.105c0.106 0.064 0.159 0.145 0.159 0.223z"></path>
<path fill="#88af76" style="fill: var(--color4, #88af76)" d="M9.655 18.849c1.399 6.581 0.94 12.192-1.027 12.533s-4.695-4.718-6.094-11.298c-1.399-6.581-0.94-12.192 1.027-12.533s4.695 4.717 6.094 11.298z"></path>
<path fill="#88af76" style="fill: var(--color4, #88af76)" d="M16.685 19.583c-1.933 6.47-5.067 11.333-7 10.862s-1.934-6.098-0.001-12.567c1.933-6.47 5.067-11.333 7-10.862s1.934 6.098 0.001 12.568z"></path>
</symbol>
<symbol id="icon-sunflower" viewBox="0 0 32 32">
<path fill="#ea903e" style="fill: var(--color5, #ea903e)" d="M20.616 15.769c0 2.668-2.162 4.83-4.83 4.83s-4.83-2.162-4.83-4.83c0-2.668 2.162-4.83 4.83-4.83s4.83 2.162 4.83 4.83z"></path>
<path fill="#f1ea37" style="fill: var(--color6, #f1ea37)" d="M17.419 5.501c0.030 3.038-0.667 5.508-1.556 5.516s-1.634-2.447-1.663-5.485c-0.030-3.038 0.667-5.508 1.556-5.516s1.634 2.447 1.663 5.485z"></path>
<path fill="#f1ea37" style="fill: var(--color6, #f1ea37)" d="M26.55 14.533c-2.914 0.857-5.481 0.861-5.732 0.008s1.908-2.24 4.823-3.097c2.914-0.857 5.481-0.861 5.732-0.008s-1.908 2.24-4.823 3.097z"></path>
<path fill="#f1ea37" style="fill: var(--color6, #f1ea37)" d="M15.649 26.589c-0.546 2.989-1.697 5.282-2.572 5.122s-1.142-2.712-0.596-5.7c0.546-2.989 1.697-5.282 2.572-5.122s1.142 2.712 0.596 5.7z"></path>
<path fill="#f1ea37" style="fill: var(--color6, #f1ea37)" d="M24.99 11.293c-2.661 1.466-5.166 2.023-5.595 1.244s1.38-2.598 4.041-4.064c2.661-1.466 5.166-2.023 5.595-1.244s-1.38 2.598-4.041 4.064z"></path>
<path fill="#f1ea37" style="fill: var(--color6, #f1ea37)" d="M12.884 5.924c1.020 2.862 1.167 5.424 0.33 5.722s-2.343-1.78-3.363-4.641c-1.020-2.862-1.167-5.424-0.33-5.722s2.343 1.78 3.363 4.641z"></path>
<path fill="#f1ea37" style="fill: var(--color6, #f1ea37)" d="M8.449 8.233c2.472 1.766 4.057 3.784 3.541 4.507s-2.94-0.121-5.412-1.887c-2.472-1.766-4.057-3.784-3.541-4.507s2.94 0.121 5.412 1.887z"></path>
<path fill="#f1ea37" style="fill: var(--color6, #f1ea37)" d="M5.521 15.014c-3.008-0.426-5.345-1.485-5.221-2.366s2.664-1.249 5.672-0.822c3.008 0.426 5.345 1.485 5.221 2.366s-2.664 1.249-5.672 0.822z"></path>
<path fill="#f1ea37" style="fill: var(--color6, #f1ea37)" d="M8.062 22.799c-2.392 1.873-4.776 2.823-5.324 2.123s0.947-2.786 3.339-4.659c2.392-1.873 4.776-2.823 5.324-2.123s-0.947 2.786-3.339 4.659z"></path>
<path fill="#f1ea37" style="fill: var(--color6, #f1ea37)" d="M11.948 25.363c-1.531 2.624-3.395 4.388-4.163 3.94s-0.149-2.939 1.382-5.562c1.531-2.624 3.395-4.388 4.163-3.94s0.149 2.939-1.382 5.562z"></path>
<path fill="#f1ea37" style="fill: var(--color6, #f1ea37)" d="M25.531 20.182c2.427 1.827 3.961 3.885 3.426 4.595s-2.936-0.195-5.363-2.023c-2.427-1.827-3.961-3.885-3.426-4.595s2.936 0.195 5.363 2.023z"></path>
<path fill="#f1ea37" style="fill: var(--color6, #f1ea37)" d="M22.966 23.405c1.496 2.644 2.082 5.142 1.308 5.58s-2.614-1.35-4.111-3.994c-1.496-2.644-2.082-5.142-1.308-5.58s2.614 1.35 4.111 3.994z"></path>
<path fill="#f1ea37" style="fill: var(--color6, #f1ea37)" d="M19.727 25.801c0.461 3.003 0.123 5.546-0.756 5.682s-1.965-2.19-2.427-5.192c-0.461-3.003-0.123-5.546 0.756-5.682s1.965 2.19 2.427 5.192z"></path>
<path fill="#f1ea37" style="fill: var(--color6, #f1ea37)" d="M22.447 7.537c-1.549 2.613-3.425 4.365-4.19 3.911s-0.129-2.94 1.42-5.553c1.549-2.613 3.425-4.365 4.19-3.911s0.129 2.94-1.42 5.553z"></path>
<path fill="#f1ea37" style="fill: var(--color6, #f1ea37)" d="M6.211 19.261c-2.899 0.907-5.465 0.955-5.731 0.106s1.87-2.272 4.769-3.179c2.899-0.907 5.465-0.955 5.731-0.106s-1.87 2.272-4.769 3.179z"></path>
<path fill="#f1ea37" style="fill: var(--color6, #f1ea37)" d="M26.043 18.775c-2.997-0.499-5.308-1.614-5.162-2.491s2.694-1.184 5.691-0.685c2.997 0.499 5.308 1.614 5.162 2.491s-2.694 1.184-5.691 0.685z"></path>
</symbol>
<symbol id="icon-menu_24px-1" viewBox="0 0 48 32">
<path d="M0 5.333v-5.333h48v5.333h-48zM0 18.667h48v-5.333h-48v5.333zM0 32h48v-5.333h-48v5.333z"></path>
</symbol>
<symbol id="icon-plus" viewBox="0 0 32 32">
<path d="M31 12h-11v-11c0-0.552-0.448-1-1-1h-6c-0.552 0-1 0.448-1 1v11h-11c-0.552 0-1 0.448-1 1v6c0 0.552 0.448 1 1 1h11v11c0 0.552 0.448 1 1 1h6c0.552 0 1-0.448 1-1v-11h11c0.552 0 1-0.448 1-1v-6c0-0.552-0.448-1-1-1z"></path>
</symbol>
<symbol id="icon-minus" viewBox="0 0 32 32">
<path d="M0 13v6c0 0.552 0.448 1 1 1h30c0.552 0 1-0.448 1-1v-6c0-0.552-0.448-1-1-1h-30c-0.552 0-1 0.448-1 1z"></path>
</symbol>
<symbol id="icon-undo" viewBox="0 0 32 32">
<path d="M16 2c-4.418 0-8.418 1.791-11.313 4.687l-4.686-4.687v12h12l-4.485-4.485c2.172-2.172 5.172-3.515 8.485-3.515 6.627 0 12 5.373 12 12 0 3.584-1.572 6.801-4.063 9l2.646 3c3.322-2.932 5.417-7.221 5.417-12 0-8.837-7.163-16-16-16z"></path>
</symbol>
<symbol id="icon-redo" viewBox="0 0 32 32">
<path d="M0 18c0 4.779 2.095 9.068 5.417 12l2.646-3c-2.491-2.199-4.063-5.416-4.063-9 0-6.627 5.373-12 12-12 3.314 0 6.314 1.343 8.485 3.515l-4.485 4.485h12v-12l-4.687 4.687c-2.895-2.896-6.895-4.687-11.313-4.687-8.837 0-16 7.163-16 16z"></path>
</symbol>
</defs>
</svg>
